<svg width="270" height="230" viewBox="0 0 270 230" fill="none" xmlns="http://www.w3.org/2000/svg">
<path fill-rule="evenodd" clip-rule="evenodd" d="M249.515 27.9515C270.909 55.2231 272.087 97.3001 264.943 128.975C261.976 142.132 257.652 155.197 250.025 166.294C242.353 177.456 231.649 186.174 220.394 193.657C192.584 212.146 160.431 223.985 127.322 227.924C104.479 230.641 80.8433 229.558 59.235 221.631C37.6268 213.705 18.1785 198.454 7.92914 177.749C-8.58095 144.4 2.04455 101.703 27.5778 74.7103C40.0143 61.5647 55.4043 51.6167 71.2105 42.8601C84.5349 35.4787 98.2612 28.8538 112.084 22.4636C136.334 11.2564 161.735 0.577993 188.422 0.36222C205.471 0.223509 223.149 5.15547 236.883 15.5173C241.709 19.1582 245.902 23.3433 249.515 27.9515Z" fill="#FDE7DE"/>
<mask id="mask0_1974_22961" style="mask-type:alpha" maskUnits="userSpaceOnUse" x="0" y="0" width="270" height="230">
<path d="M249.998 27.9515C271.391 55.2231 272.569 97.3001 265.424 128.975C262.458 142.132 258.135 155.197 250.507 166.294C242.835 177.456 232.132 186.174 220.876 193.657C193.066 212.146 160.914 223.985 127.804 227.924C104.962 230.641 81.3265 229.558 59.7171 221.631C38.1089 213.705 18.6606 198.454 8.41004 177.749C-8.10005 144.4 2.52663 101.703 28.0599 74.7103C40.4964 61.5647 55.8864 51.6167 71.6914 42.8601C85.0169 35.4787 98.7433 28.8538 112.568 22.4636C136.814 11.2564 162.217 0.577993 188.903 0.36222C205.952 0.223509 223.631 5.15547 237.365 15.5173C242.191 19.1582 246.383 23.3433 249.998 27.9515Z" fill="white"/>
</mask>
<g mask="url(#mask0_1974_22961)">
<path d="M128.001 159.117L117.134 271.344M161.754 159.692L181.059 270.768" stroke="#121514" stroke-width="3"/>
<path fill-rule="evenodd" clip-rule="evenodd" d="M61.7014 170.477C61.6472 170.425 61.593 170.374 61.5376 170.32C55.8145 164.813 51.702 157.257 51.6497 149.292C51.5912 140.133 56.8756 131.604 63.7895 125.64C71.2717 119.184 82.3924 112.648 91.5913 109.271C102.716 105.185 115.372 107.309 126.593 102.82C142.339 96.5223 154.836 85.0674 165.59 72.1743C175.654 60.1076 183.062 42.3324 199.473 38.1818C205.06 36.7686 211.166 36.95 216.367 39.4408C224.944 43.5476 229.621 52.9895 232.331 62.1456C238.382 82.599 237.612 105.029 230.176 125.014C208.474 183.335 136.611 204.043 81.8595 182.415C74.5553 179.531 67.3986 175.897 61.7014 170.477Z" fill="#E57A74"/>
<path fill-rule="evenodd" clip-rule="evenodd" d="M152.76 125.27C151.404 114.31 140.567 108.749 130.977 106.867C117.891 104.298 105.098 100.191 92.9472 94.6701C90.0432 93.3506 87.1593 91.9445 84.2093 90.734C81.9043 89.7891 79.5616 88.9652 77.1375 88.3937C59.005 84.1292 46.4718 94.8005 36.1753 108.184C28.9796 117.539 22.1801 127.204 15.8038 137.143C8.38179 148.709 1.53039 160.655 -6.39983 171.887C-8.38533 174.698 -10.3968 177.921 -12.7607 180.677C-10.0501 184.477 -7.07306 188.138 -4.39428 191.935C-2.55969 190.42 -0.808821 188.746 0.969171 187.191C19.855 170.672 39.8032 155.379 60.6474 141.444C62.1047 140.47 63.6115 139.482 65.3258 139.131C67.6191 138.663 69.9689 139.39 72.1914 140.127C82.7426 143.63 93.6251 146.374 104.568 148.294C114.249 149.992 124.826 151.516 134.566 149.418C145.004 147.172 154.158 136.593 152.76 125.27Z" fill="#5FC1CB"/>
<path fill-rule="evenodd" clip-rule="evenodd" d="M9.01953 239.928C20.6649 241.36 32.3857 242.171 44.116 242.361C48.5197 217.473 52.9234 192.587 57.326 167.701C80.6957 170.774 104.419 170.495 127.878 168.225C136.194 167.421 144.654 166.32 152.197 162.713C166.341 155.951 170.856 142.045 167.166 127.235C166.435 124.298 165.206 121.443 163.263 119.13C160.287 115.591 155.856 113.574 151.361 112.545C142.447 110.502 134.374 113.32 125.491 113.478C114.008 113.683 102.572 114.934 91.2045 116.504C69.193 119.548 46.3585 124.249 29.0479 138.252C21.0021 144.762 18.7631 152.179 16.4946 161.919C10.6218 187.139 10.8789 214.133 9.01953 239.928Z" fill="#5FC1CB"/>
<path fill-rule="evenodd" clip-rule="evenodd" d="M148.201 65.4384C148.333 65.2748 148.462 65.1112 148.592 64.9452C150.899 62.0204 153.868 58.6226 157.528 59.2569C159.95 59.6766 161.765 61.9125 162.341 64.3145C162.915 66.7176 162.461 69.2488 161.77 71.62C159.477 79.4945 153.854 84.9469 148.603 90.972C143.147 97.2318 135.773 103.883 127.082 104.416C122.703 104.685 117.406 102.924 116.503 98.607C116.009 96.2501 117.047 93.7877 118.621 91.9738C120.195 90.1587 122.259 88.8605 124.249 87.5208C133.286 81.4388 141.393 73.9638 148.201 65.4384Z" fill="#FFFFFE"/>
<path fill-rule="evenodd" clip-rule="evenodd" d="M148.201 65.4384C148.333 65.2748 148.462 65.1112 148.592 64.9452C150.899 62.0204 153.868 58.6226 157.528 59.2569C159.95 59.6766 161.765 61.9125 162.341 64.3145C162.915 66.7176 162.461 69.2488 161.77 71.62C159.477 79.4945 153.854 84.9469 148.603 90.972C143.147 97.2318 135.773 103.883 127.082 104.416C122.703 104.685 117.406 102.924 116.503 98.607C116.009 96.2501 117.047 93.7877 118.621 91.9738C120.195 90.1587 122.259 88.8605 124.249 87.5208C133.286 81.4388 141.393 73.9638 148.201 65.4384Z" stroke="#000105" stroke-width="0.5"/>
<path fill-rule="evenodd" clip-rule="evenodd" d="M178.992 140.866C187.025 129.215 194.243 116.95 201.427 104.735C204.972 98.7063 209.305 91.5787 209.437 84.3823C209.501 80.8908 207.736 75.174 205.172 72.5587C201.712 69.0316 195.513 69.5959 191.371 67.1821C182.624 62.0854 175.858 54.8961 164.95 55.1842C159.596 55.3264 154.553 57.3929 150.253 60.5311C146.03 63.6112 142.754 67.6943 139.505 71.7454C138.341 73.1941 138.022 73.1633 138.803 74.6583C139.2 75.4147 139.959 76.3086 140.475 77.0045C141.893 78.9169 143.766 80.6241 145.734 81.9507C146.052 82.1665 146.416 82.4368 146.413 82.8221C146.412 83.064 146.26 83.2762 146.115 83.4694C142.165 88.7298 138.182 93.5302 132.61 97.0916C131.187 98.0021 121.258 105.432 119.707 102.935C124.439 110.553 129.322 118.075 134.349 125.498C142.971 138.225 152.097 150.746 163.322 161.222C168.959 154.76 174.125 147.925 178.992 140.866Z" fill="#35619C"/>
<path fill-rule="evenodd" clip-rule="evenodd" d="M131.075 114.284L83.2625 91.9536C82.6399 91.662 82.8038 90.7301 83.4888 90.672L116.676 87.8516L166.776 111.251L131.075 114.284Z" fill="#FFFFFE"/>
<path fill-rule="evenodd" clip-rule="evenodd" d="M131.075 114.284L83.2625 91.9536C82.6399 91.662 82.8038 90.7301 83.4888 90.672L116.676 87.8516L166.776 111.251L131.075 114.284Z" stroke="#121514" stroke-width="0.5"/>
<path fill-rule="evenodd" clip-rule="evenodd" d="M130.634 109.705L104.738 97.6113L122.795 96.9023L148.691 108.996L130.634 109.705Z" fill="#FFFFFE"/>
<path fill-rule="evenodd" clip-rule="evenodd" d="M130.634 109.705L104.738 97.6113L122.795 96.9023L148.691 108.996L130.634 109.705Z" stroke="#121514" stroke-width="0.5"/>
<path fill-rule="evenodd" clip-rule="evenodd" d="M186.999 101.148C184.931 103.776 182.864 106.404 180.796 109.033C179.848 110.237 170.702 108.367 169.126 108.127C165.149 107.524 161.226 106.604 157.386 105.406C149.701 103.01 143.008 100.238 135.568 96.9899C130.661 94.8488 125.388 93.2376 120.045 93.5114C117.488 93.6419 114.532 94.5619 113.712 97.0018C112.928 99.3421 114.634 101.884 116.779 103.085C119.059 104.359 121.963 104.116 124.162 105.329C125.972 106.326 127.455 108.184 129.383 109.243C145.752 118.232 158.468 134.673 177.798 137.208C182.462 137.82 187.401 137.362 191.494 135.029C194.806 133.143 197.348 130.173 199.819 127.262C207.866 117.788 218.405 105.166 215.335 91.6489C214.955 89.9808 214.253 88.3234 212.971 87.1995C211.461 85.874 209.341 85.4626 207.339 85.5504C199.569 85.8918 193.754 92.5606 188.928 98.6947C188.284 99.5116 187.642 100.331 186.999 101.148Z" fill="#FFFFFE"/>
<path fill-rule="evenodd" clip-rule="evenodd" d="M186.999 101.148C184.931 103.776 182.864 106.404 180.796 109.033C179.848 110.237 170.702 108.367 169.126 108.127C165.149 107.524 161.226 106.604 157.386 105.406C149.701 103.01 143.008 100.238 135.568 96.9899C130.661 94.8488 125.388 93.2376 120.045 93.5114C117.488 93.6419 114.532 94.5619 113.712 97.0018C112.928 99.3421 114.634 101.884 116.779 103.085C119.059 104.359 121.963 104.116 124.162 105.329C125.972 106.326 127.455 108.184 129.383 109.243C145.752 118.232 158.468 134.673 177.798 137.208C182.462 137.82 187.401 137.362 191.494 135.029C194.806 133.143 197.348 130.173 199.819 127.262C207.866 117.788 218.405 105.166 215.335 91.6489C214.955 89.9808 214.253 88.3234 212.971 87.1995C211.461 85.874 209.341 85.4626 207.339 85.5504C199.569 85.8918 193.754 92.5606 188.928 98.6947C188.284 99.5116 187.642 100.331 186.999 101.148Z" stroke="#121514" stroke-width="0.5"/>
<path fill-rule="evenodd" clip-rule="evenodd" d="M81.0388 90.3591L78.4001 56.5586L130.324 80.3446L131.075 114.281L82.1448 91.9454C81.5164 91.6573 81.0931 91.0515 81.0388 90.3591Z" fill="#000105"/>
<path fill-rule="evenodd" clip-rule="evenodd" d="M103.034 100.153C100.903 97.5313 100.422 94.0896 99.9507 90.8399C99.5616 88.1617 99.1737 85.4835 98.7846 82.8053C98.6703 82.0146 98.5394 81.1847 98.056 80.5504C97.5973 79.9469 96.7154 79.6304 96.0681 79.9896C95.9325 79.8213 95.7958 79.6541 95.6401 79.5095C95.0942 79.0009 94.4611 78.4934 93.6688 78.6559C92.9956 78.7934 92.4072 79.3933 92.1808 80.0584C92.1195 79.9707 92.0641 79.8782 91.9804 79.8047C91.3107 79.2344 90.1906 79.5794 89.5799 80.1034C89.0823 80.5314 89.0257 81.193 89.001 81.851C89.0222 81.2807 87.5484 81.4028 87.289 81.5652C86.7478 81.9055 86.6016 82.5967 86.5415 83.193C86.2562 86.0182 86.3788 88.8719 86.7207 91.69C86.9789 93.811 87.2112 95.6 88.4445 97.4032C89.0918 98.3505 89.9112 99.178 90.8521 99.8301C91.9049 100.559 92.7645 100.69 93.9541 100.953C94.9846 101.183 95.9915 101.51 96.9854 101.867C99.4095 102.735 101.987 103.792 104.47 103.119C104.786 103.033 105.151 102.846 105.156 102.519C105.161 102.176 104.784 101.984 104.488 101.817C103.804 101.429 103.593 100.822 103.123 100.262C103.094 100.226 103.063 100.189 103.034 100.153Z" fill="#FFFFFE"/>
<path fill-rule="evenodd" clip-rule="evenodd" d="M103.034 100.153C100.903 97.5313 100.422 94.0896 99.9507 90.8399C99.5616 88.1617 99.1737 85.4835 98.7846 82.8053C98.6703 82.0146 98.5394 81.1847 98.056 80.5504C97.5973 79.9469 96.7154 79.6304 96.0681 79.9896C95.9325 79.8213 95.7958 79.6541 95.6401 79.5095C95.0942 79.0009 94.4611 78.4934 93.6688 78.6559C92.9956 78.7934 92.4072 79.3933 92.1808 80.0584C92.1195 79.9707 92.0641 79.8782 91.9804 79.8047C91.3107 79.2344 90.1906 79.5794 89.5799 80.1034C89.0823 80.5314 89.0257 81.193 89.001 81.851C89.0222 81.2807 87.5484 81.4028 87.289 81.5652C86.7478 81.9055 86.6016 82.5967 86.5415 83.193C86.2562 86.0182 86.3788 88.8719 86.7207 91.69C86.9789 93.811 87.2112 95.6 88.4445 97.4032C89.0918 98.3505 89.9112 99.178 90.8521 99.8301C91.9049 100.559 92.7645 100.69 93.9541 100.953C94.9846 101.183 95.9915 101.51 96.9854 101.867C99.4095 102.735 101.987 103.792 104.47 103.119C104.786 103.033 105.151 102.846 105.156 102.519C105.161 102.176 104.784 101.984 104.488 101.817C103.804 101.429 103.593 100.822 103.123 100.262C103.094 100.226 103.063 100.189 103.034 100.153Z" stroke="#000105" stroke-width="0.5"/>
<path fill-rule="evenodd" clip-rule="evenodd" d="M96.0823 79.8633C96.1082 82.4466 96.2556 85.03 96.5221 87.5991C96.7673 89.9655 96.7225 92.4753 97.5679 94.7232" fill="#FFFFFE"/>
<path d="M96.0823 79.8633C96.1082 82.4466 96.2556 85.03 96.5221 87.5991C96.7673 89.9655 96.7225 92.4753 97.5679 94.7232" stroke="#000105" stroke-width="0.5"/>
<path fill-rule="evenodd" clip-rule="evenodd" d="M92.5004 79.4414C92.2964 83.5364 93.183 90.0593 93.9647 94.0832L92.5004 79.4414Z" fill="#FFFFFE"/>
<path d="M92.5004 79.4414C92.2964 83.5364 93.183 90.0593 93.9647 94.0832" stroke="#000105" stroke-width="0.5"/>
<path fill-rule="evenodd" clip-rule="evenodd" d="M89.1117 78.75C89.2319 79.2479 89.1871 79.7672 89.1506 80.2782C88.8818 84.1846 89.3392 89.5043 90.3697 93.2803" fill="#FFFFFE"/>
<path d="M89.1117 78.75C89.2319 79.2479 89.1871 79.7672 89.1506 80.2782C88.8818 84.1846 89.3392 89.5043 90.3697 93.2803" stroke="#000105" stroke-width="0.5"/>
<path fill-rule="evenodd" clip-rule="evenodd" d="M192.42 67.2255C197.629 66.5663 202.949 65.9107 208.092 66.9647C221.02 69.6144 224.915 84.1151 222.979 95.7384C221.23 106.244 215.706 115.33 209.321 123.632C199.781 117.253 190.906 109.336 181.367 102.956C180.803 102.578 184.285 99.8381 188.114 91.0009" fill="#35619C"/>
<path fill-rule="evenodd" clip-rule="evenodd" d="M189.097 69.9396C187.34 69.4322 185.666 68.6675 184.177 67.6005C182.446 66.3604 180.994 64.6982 180.055 62.7776C179.552 61.7521 179.486 59.0312 178.141 58.8202C179.521 59.669 181.702 59.9476 183.255 59.4853C184.707 59.0514 185.608 57.484 186.339 56.2641C187.282 54.6908 188.278 53.2018 188.888 51.4448C188.921 51.3499 188.954 51.2515 188.949 51.1507C188.929 50.731 187.88 50.2556 187.553 50.0719C187.032 49.7767 186.462 49.5348 185.977 49.1768C184.694 48.2295 183.51 47.1174 182.743 45.6983C181.822 43.9911 181.578 42.0065 181.425 40.0716C180.754 31.6055 183.421 22.9674 189.771 17.0764C190.281 16.6033 190.828 16.1421 191.482 15.9181C193.885 15.0953 195.927 17.3965 198.098 17.9383C200.208 18.4647 202.164 18.9863 204.254 19.7569C206.759 20.6793 209.331 21.4143 211.806 22.4185C213.28 23.016 216.711 24.0404 217.232 25.7974C217.809 27.7358 216.077 29.7845 215.465 31.4834C214.749 33.4716 214.18 35.4526 213.36 37.4432C211.576 41.767 210.144 46.2259 208.821 50.7109C207.841 54.0293 206.775 57.3453 206.267 60.7775C206.063 62.1611 205.845 63.6419 206.33 64.9934C206.541 65.5803 206.914 66.1114 207.391 66.5098C207.604 66.69 208.681 67.457 208.977 67.2377C207.892 68.0427 206.683 68.6805 205.406 69.1216C204.445 69.4523 203.452 69.6717 202.46 69.891C197.937 70.8881 193.609 71.2425 189.097 69.9396Z" fill="#FFFFFE"/>
<path fill-rule="evenodd" clip-rule="evenodd" d="M189.097 69.9396C187.34 69.4322 185.666 68.6675 184.177 67.6005C182.446 66.3604 180.994 64.6982 180.055 62.7776C179.552 61.7521 179.486 59.0312 178.141 58.8202C179.521 59.669 181.702 59.9476 183.255 59.4853C184.707 59.0514 185.608 57.484 186.339 56.2641C187.282 54.6908 188.278 53.2018 188.888 51.4448C188.921 51.3499 188.954 51.2515 188.949 51.1507C188.929 50.731 187.88 50.2556 187.553 50.0719C187.032 49.7767 186.462 49.5348 185.977 49.1768C184.694 48.2295 183.51 47.1174 182.743 45.6983C181.822 43.9911 181.578 42.0065 181.425 40.0716C180.754 31.6055 183.421 22.9674 189.771 17.0764C190.281 16.6033 190.828 16.1421 191.482 15.9181C193.885 15.0953 195.927 17.3965 198.098 17.9383C200.208 18.4647 202.164 18.9863 204.254 19.7569C206.759 20.6793 209.331 21.4143 211.806 22.4185C213.28 23.016 216.711 24.0404 217.232 25.7974C217.809 27.7358 216.077 29.7845 215.465 31.4834C214.749 33.4716 214.18 35.4526 213.36 37.4432C211.576 41.767 210.144 46.2259 208.821 50.7109C207.841 54.0293 206.775 57.3453 206.267 60.7775C206.063 62.1611 205.845 63.6419 206.33 64.9934C206.541 65.5803 206.914 66.1114 207.391 66.5098C207.604 66.69 208.681 67.457 208.977 67.2377C207.892 68.0427 206.683 68.6805 205.406 69.1216C204.445 69.4523 203.452 69.6717 202.46 69.891C197.937 70.8881 193.609 71.2425 189.097 69.9396Z" stroke="#121514" stroke-width="0.5"/>
<path fill-rule="evenodd" clip-rule="evenodd" d="M211.082 39.986C212.255 39.871 213.44 39.3801 213.96 38.2527C215.416 42.6428 222.156 40.7198 222.401 36.5123C222.511 34.632 221.086 32.7315 219.229 32.4873C220.471 32.0296 221.738 31.5424 222.724 30.6556C223.71 29.7699 224.365 28.3888 224.034 27.1024C223.534 25.1628 221.137 24.3792 219.16 24.6163C220.997 23.6832 222.271 20.5308 221.212 18.6778C220.5 17.4294 219.173 16.9528 217.813 16.8994C217.303 16.8781 214.684 17.0215 214.448 17.5384C215.503 15.2266 214.514 12.1749 212.304 10.9348C210.093 9.69355 206.992 10.4464 205.588 12.565C205.75 9.66272 203.939 6.65731 201.181 5.78711C198.751 5.02004 193.608 6.84937 194.314 10.1358C192.773 9.38056 191.254 8.58267 189.484 8.58623C187.744 8.58979 185.911 9.50979 185.28 11.1411C184.648 12.7725 185.71 14.9693 187.445 15.1021C186.198 15.2076 184.924 15.4246 183.853 16.0766C182.782 16.7287 181.948 17.8953 181.994 19.152C182.022 19.9025 182.344 20.5569 182.841 21.0916C183.635 21.9488 184.874 22.4977 186.062 22.6506C187.589 22.8462 189.168 22.6091 190.572 21.9713C189.456 23.3252 189.812 25.5209 191.076 26.7373C192.338 27.9525 194.254 28.2844 195.975 27.9762C197.696 27.6667 199.263 26.7977 200.745 25.8659C199.474 27.2601 200.253 29.7249 201.873 30.6888C203.496 31.6538 205.536 31.4511 207.269 30.9235C205.429 31.4855 206.039 36.2763 206.372 37.5508C206.599 38.4222 207.28 39.13 208.084 39.5272C208.889 39.9243 209.806 40.0381 210.702 40.0109C210.829 40.0061 210.956 39.999 211.082 39.986Z" fill="#121514"/>
<path fill-rule="evenodd" clip-rule="evenodd" d="M188.974 50.8516C188.91 51.014 188.847 51.1776 188.778 51.34C188.699 51.5321 188.618 51.7253 188.535 51.9174C188.531 51.9292 188.525 51.9411 188.521 51.953C188.446 52.3608 188.3 52.739 188.104 53.097C188.073 53.1895 188.035 53.2808 188.005 53.3733C187.873 53.7681 187.699 54.1427 187.519 54.5114C189.553 54.6525 192.173 54.6691 194.019 52.7591C194.515 52.2458 195.107 51.6767 195.421 51.0543C193.379 51.5997 191.1 51.493 188.974 50.8516Z" fill="#000105"/>
<path d="M183.859 39.4336C183.862 40.899 184.865 42.3098 186.245 42.7864C187.624 43.2606 189.277 42.765 190.173 41.6079" stroke="#121514" stroke-width="0.5"/>
<path fill-rule="evenodd" clip-rule="evenodd" d="M204.864 37.3119C206.177 36.2365 207.855 35.5477 209.546 35.6556C211.236 35.7635 212.903 36.7523 213.601 38.3042C214.22 39.683 214.009 41.3748 213.166 42.6291C212.321 43.8823 210.901 44.6956 209.41 44.9113C208.164 45.0904 206.786 44.8295 205.906 43.9238" fill="#FFFFFE"/>
<path d="M204.864 37.3119C206.177 36.2365 207.855 35.5477 209.546 35.6556C211.236 35.7635 212.903 36.7523 213.601 38.3042C214.22 39.683 214.009 41.3748 213.166 42.6291C212.321 43.8823 210.901 44.6956 209.41 44.9113C208.164 45.0904 206.786 44.8295 205.906 43.9238" stroke="#121514" stroke-width="0.5"/>
<path fill-rule="evenodd" clip-rule="evenodd" d="M210.501 37.4943C209.646 37.377 208.771 37.6212 208.008 38.0255C207.243 38.4309 206.572 38.9882 205.908 39.5406" fill="#FFFFFE"/>
<path d="M210.501 37.4943C209.646 37.377 208.771 37.6212 208.008 38.0255C207.243 38.4309 206.572 38.9882 205.908 39.5406" stroke="#121514" stroke-width="0.5"/>
<path fill-rule="evenodd" clip-rule="evenodd" d="M145.763 84.2692C147.341 82.358 148.919 80.4469 150.496 78.5358C151.286 77.5778 152.077 76.6175 152.753 75.5742" fill="#6186B7"/>
<path d="M145.763 84.2692C147.341 82.358 148.919 80.4469 150.496 78.5358C151.286 77.5778 152.077 76.6175 152.753 75.5742" stroke="#000105" stroke-width="0.5"/>
<path d="M119.354 126.54C97.3333 122.334 82.982 120.931 60.9611 116.726C51.1586 114.854 39.9306 118.558 33.1711 125.938C26.4117 133.318 22.8463 143.035 19.7714 152.58C17.3142 160.209 15.0635 167.905 13.0249 175.656M57.1151 168.846C56.285 164.508 55.2946 160.201 54.1474 155.937M184.1 104.99C183.374 104.46 182.65 103.93 181.925 103.401C185.78 98.6345 189.637 93.8686 193.491 89.1014C194.124 88.3213 194.794 87.4025 194.625 86.4102" stroke="#121514" stroke-width="0.5"/>
<path fill-rule="evenodd" clip-rule="evenodd" d="M145.087 80.4407C145.127 80.2475 145.193 80.0601 145.283 79.887C145.552 79.3737 146.118 78.7631 146.717 78.6766C147.524 78.5604 148.19 78.8426 148.48 77.8597C148.735 76.9943 149.381 76.5082 150.323 76.4548C150.637 76.4371 150.952 76.4821 151.267 76.456C151.442 76.4418 151.861 76.2711 152.024 76.3552C152.443 76.5675 151.766 77.2551 151.568 77.5432C151.08 78.2533 150.58 78.954 150.056 79.6357C149.553 80.2913 149.027 80.9292 148.469 81.5374C148.316 81.7045 146.674 83.2126 146.695 83.2588C146.422 82.6542 145.714 82.3732 145.334 81.829C145.056 81.4318 144.989 80.9209 145.087 80.4407Z" fill="#000105"/>
<path d="M178.327 134.396C180.094 134.814 181.921 135.047 183.725 134.862C185.529 134.676 187.318 134.05 188.719 132.892M190.178 131.98C191.046 131.237 191.813 130.375 192.45 129.423M179.997 109.418C180.901 109.463 181.805 109.472 182.71 109.444M133.856 164.226C137.226 163.97 140.569 163.357 143.81 162.4C145.493 161.903 149.547 160.531 151.117 159.743M172.363 145.278C170.889 146.984 169.413 148.691 167.938 150.396M55.9513 154.402C56.0256 155.663 56.0987 156.925 56.173 158.186M136.731 161.738C138.132 161.516 139.535 161.296 140.935 161.074M44.109 123.786C42.5279 124.056 41.0223 124.766 39.8032 125.814M59.2172 92.2578C57.4239 92.917 55.6966 93.7564 54.0707 94.7617M38.3117 127.148C37.9214 127.703 37.5324 128.256 37.1421 128.811" stroke="#121514" stroke-width="0.5"/>
</g>
</svg>
