<svg width="500" height="502" viewBox="0 0 500 502" fill="none" xmlns="http://www.w3.org/2000/svg">
<path d="M0 360.266H481.456" stroke="#111111" stroke-width="2"/>
<path d="M392.94 332.062C392.946 332.022 392.946 331.981 392.94 331.942C392.936 331.891 392.936 331.841 392.94 331.79C392.94 331.79 392.94 331.733 392.94 331.695C392.955 331.802 392.976 331.907 393.003 332.011C392.988 332.035 392.966 332.053 392.94 332.062Z" fill="white"/>
<path d="M392.919 332.082H392.937L392.919 332.1V332.082Z" fill="white"/>
<path d="M392.959 332.04C393.117 331.901 393.25 331.807 393.408 331.668C393.275 331.788 393.117 331.921 392.978 332.06C392.978 332.06 392.978 332.06 392.94 332.06L392.959 332.04Z" fill="white"/>
<path d="M392.603 331.971V332.065C392.61 332.025 392.61 331.985 392.603 331.946C392.6 331.895 392.6 331.844 392.603 331.794C392.603 331.794 392.603 331.738 392.603 331.699C392.599 331.79 392.599 331.88 392.603 331.971Z" fill="white"/>
<path d="M392.667 332.091C392.667 331.964 392.648 331.84 392.61 331.719C392.648 331.952 392.667 332.091 392.667 332.091Z" fill="white"/>
<path d="M317.493 325.086C314.037 316.8 310.005 308.76 305.429 301.026C307.283 291.285 308.547 274.22 304.527 266.475C301.556 260.751 289.562 259.882 281.282 260.001C274.889 251.62 269.721 247.301 269.721 247.301C269.721 247.301 231.231 253.484 222.444 253.535C213.657 253.585 213.663 258.415 213.663 258.415C213.663 258.415 207.542 276.732 200.622 285.832C193.701 294.931 175.085 305.982 148.259 310.239C121.434 314.495 100.335 309.25 95.4969 306.58C90.6587 303.91 90.5 306.485 99.1603 323.405C107.821 340.325 121.154 352.491 143.548 356.503C157.36 358.861 171.522 358.255 185.079 354.727C185.079 354.727 220.514 345.867 230.907 339.11C241.301 332.354 242.926 341.541 242.926 341.541L241.911 479.557L269.34 484.985L293.035 371.936L318.305 413.873L344.559 403.169C341.467 387.068 325.587 344.607 317.493 325.086Z" fill="#007456"/>
<path d="M245.691 140.642C245.133 144.46 243.499 148.043 240.98 150.977C239.045 153.436 236.582 155.435 233.771 156.828C233.111 157.144 232.426 157.405 231.721 157.605C231.721 155.429 231.683 153.216 231.564 151.058C231.116 142.975 229.476 134.559 224.298 128.345C221.807 125.376 218.663 123.016 215.108 121.447C215.209 119.954 215.329 118.474 215.424 116.981C215.695 114.429 215.682 111.856 215.386 109.306C215.052 107.759 214.862 106.184 214.818 104.603C214.875 103.129 214.66 97.4725 215.834 96.2493C217.791 97.0611 219.888 97.4868 222.008 97.5038C226.757 97.4662 230.529 94.5691 233.071 90.8629C234.006 90.5591 234.978 90.3816 235.96 90.3359C238.836 90.7625 230.252 98.4573 233.052 97.5854C231.229 98.1436 229.898 100.865 229.041 102.421C227.779 104.829 227.048 107.663 228.284 110.209C229.495 112.642 232.031 114.737 233.828 116.737C236.251 119.267 238.518 121.941 240.615 124.745C243.932 129.336 246.354 134.973 245.691 140.642Z" fill="#111111"/>
<path d="M317.226 57.4685L331.569 50.5936C332.88 49.9664 334.026 49.0434 334.913 47.8982L341.61 39.2786C343.213 37.1038 342.784 34.058 340.641 32.402C338.498 30.7451 335.416 31.0784 333.683 33.1529L332.458 34.5696L335.041 28.5058C335.396 27.6625 335.364 26.7082 334.953 25.8901C334.543 25.071 333.794 24.4706 332.902 24.243L328.821 24.7789L341.578 7.49498C343.386 5.04595 341.629 2.08614 338.982 1.24919C335.935 0.285886 333.118 2.27522 331.226 4.47961C323.446 13.5714 317.549 24.0862 312.072 34.6637C310.232 38.2194 308.457 41.8038 306.747 45.4178" stroke="#111111" stroke-width="2" stroke-linejoin="round"/>
<path d="M328.829 24.7812C328.829 24.7812 320.509 35.0505 332.466 34.572" stroke="#111111" stroke-width="2"/>
<path d="M90.9813 198.602C71.8462 249.709 80.6173 300.501 80.6173 300.501C109.52 316.456 150.5 315.071 179.853 301.049C190.236 296.074 201.431 288.582 205.963 277.601C209.289 269.561 212.747 261.584 215.597 253.43" fill="#FAF6EB"/>
<path d="M90.9813 198.602C71.8462 249.709 80.6173 300.501 80.6173 300.501C109.52 316.456 150.5 315.071 179.853 301.049C190.236 296.074 201.431 288.582 205.963 277.601C209.289 269.561 212.747 261.584 215.597 253.43" stroke="#111111" stroke-width="2"/>
<path d="M201.683 118.051C206.23 118.331 210.689 119.415 214.851 121.252C218.426 122.83 221.589 125.201 224.095 128.183C229.307 134.433 230.958 142.882 231.409 151.004C231.53 153.19 231.587 155.414 231.568 157.582C231.472 176.812 228.247 195.841 222.952 214.447H270.887H295.928M301.634 241.138L300.18 241.389C292.473 242.971 275.242 245.725 258.423 248.283C243.04 250.646 227.994 252.833 220.877 253.847C218.178 254.238 215.423 254.527 212.623 254.704C196.007 255.718 178.853 252.051 174.409 233.281C171.514 221.259 172.148 208.298 172.282 195.784" stroke="#111111" stroke-width="2"/>
<path d="M281.229 260.626C291.983 260.135 301.621 261.716 305.754 268.395C307.837 271.772 307.328 283.681 305.182 300.29" stroke="#111111" stroke-width="3"/>
<path d="M101.054 327.055C101.077 327.083 101.096 327.116 101.111 327.15C105.714 336.462 113.809 344.502 124.164 350.128C160.651 369.938 215.531 346.726 235.269 337.067C236.871 336.284 238.766 336.379 240.28 337.317C241.795 338.254 242.714 339.901 242.71 341.673V490.228L284.936 500.845C286.258 501.181 287.66 500.969 288.819 500.255C289.979 499.542 290.794 498.388 291.076 497.065C291.655 494.416 289.993 491.795 287.337 491.167L269.122 485.212C269.966 479.34 282.321 425.638 292.822 372.093" stroke="#111111" stroke-width="2"/>
<path d="M268.723 246.672C279.516 255.745 287.267 269.695 294.524 281.547C312.206 310.424 325.431 341.853 335.703 374.012C338.808 383.728 341.665 393.545 344.363 403.362L364.985 399.159C367.419 398.374 370.039 399.661 370.885 402.058C371.732 404.455 370.496 407.084 368.102 407.98L323.882 424.362C323.882 424.362 310.942 400.375 292.861 372.065C266.361 330.53 217.392 266.513 204.465 280.167" stroke="#111111" stroke-width="2"/>
<path d="M230.147 104.539C230.147 104.539 273.51 101.558 303.235 43.1562C303.235 43.1562 312.632 49.5893 325.729 69.7139C325.729 69.7139 288.982 143.731 231.41 163.263" stroke="#111111" stroke-width="2"/>
<path d="M226.436 36.5195L228.946 40.3539L230.457 42.6865C231.991 46.278 233.339 49.9467 234.497 53.678L234.572 53.9432L237.445 64.9787C237.451 64.9903 237.451 65.0037 237.445 65.0163C238.411 66.614 239.742 67.9564 241.328 68.9322C241.704 69.1356 242.053 69.383 242.37 69.6697C244.094 71.4108 239.547 71.9154 238.606 72.4889C237.763 73.0704 237.255 74.0283 237.245 75.0553C231.844 97.6494 235.319 91.7155 232.998 96.7417C235.011 95.0266 240.017 89.572 240.017 89.572C240.645 89.1616 241.234 87.9322 241.642 87.3201C242.937 85.3228 244.052 83.2124 244.973 81.0143C247.836 74.4504 248.496 67.1284 246.855 60.1541C244.264 49.314 238.223 38.4685 226.436 36.5195Z" fill="#1F2E54"/>
<path d="M225.637 42.9682C225.172 45.3133 224.054 47.4819 222.41 49.2248C220.626 51.1675 218.546 52.8208 216.25 54.1264C211.927 56.6875 207.117 58.623 203.485 62.0802C199.848 65.5597 197.671 70.2812 197.393 75.2949C197.139 80.4286 198.984 85.7461 200.106 90.5528C203.661 106.088 202.521 121.018 200.556 136.655C198.692 151.408 194.725 165.846 187.031 178.688C177.954 193.827 163.052 205.944 146.281 212.163C132.337 217.341 105.241 221.934 94.9918 207.527C93.2234 202.98 93.2044 197.775 93.8889 192.874C97.9138 164.124 120.066 134.617 146.496 122.658C160.656 116.25 183.747 106.404 176.287 86.8187C173.91 80.6437 170.582 75.3137 169.948 68.8609C169.891 68.274 169.834 67.6879 169.778 67.0634C168.712 51.9247 177.567 37.5558 191.904 32.371C201.394 28.8054 211.968 29.4954 220.908 34.2635C222.477 35.0942 223.881 36.2018 225.054 37.5307C225.134 37.6212 225.206 37.718 225.269 37.8211C225.358 38.0442 225.43 38.2745 225.485 38.5084C225.835 39.9699 225.886 41.4861 225.637 42.9682Z" fill="#111111"/>
<path d="M231.476 157.295C239.149 155.537 245.881 150.086 247.805 142.122C249.596 134.743 246.763 127.168 242.374 121.233C238.304 115.75 229.825 111.151 230.492 103.375C230.708 100.854 231.966 98.6492 233.604 96.6957C234.195 96.0156 234.804 95.3856 235.471 94.7422" stroke="#111111" stroke-width="2"/>
<path d="M215.656 96.1289L215.3 121.857" stroke="#111111" stroke-width="4"/>
<path fill-rule="evenodd" clip-rule="evenodd" d="M173.358 83.227C170.989 77.052 167.642 71.7274 167.008 65.288C166.944 64.6957 166.887 64.1034 166.842 63.4726C165.769 48.35 174.647 34.0017 189.007 28.816C198.518 25.2567 209.114 25.9458 218.076 30.7068C219.643 31.5402 221.046 32.6477 222.216 33.9767L222.515 34.336C224.613 36.88 225.5 40.2 224.947 43.4412C224.485 45.7782 223.372 47.9396 221.734 49.6798C219.938 51.6235 217.852 53.2813 215.548 54.5949C211.216 57.1533 206.402 59.0745 202.75 62.5281C199.105 66.0139 196.93 70.7435 196.666 75.7607C196.406 80.89 198.261 86.1949 199.366 91.0096C202.928 106.529 201.792 121.438 199.823 137.052C197.956 151.791 193.986 166.221 186.263 179.05C177.169 194.173 162.244 206.284 145.433 212.491C131.187 217.759 103.256 222.421 93.4434 207.002C90.1472 201.829 89.9312 195.282 90.7823 189.22C94.8151 160.505 117.025 131.016 143.495 119.075C157.709 112.597 180.846 102.786 173.358 83.227Z" stroke="#111111" stroke-width="2"/>
<path d="M230.455 63.4303C230.455 64.5662 229.527 65.4934 228.373 65.4934C227.22 65.4934 226.292 64.5662 226.292 63.4303C226.292 62.2943 227.22 61.3672 228.373 61.3672C229.527 61.3672 230.455 62.2943 230.455 63.4303Z" fill="#111111" stroke="#111111"/>
<path d="M227.586 55.4492C227.586 55.4492 219.228 59.1895 221.874 66.4614L227.586 55.4492Z" fill="#111111"/>
<path d="M227.586 55.4492C227.586 55.4492 219.228 59.1895 221.874 66.4614" stroke="#111111" stroke-width="2" stroke-linecap="round"/>
<path d="M235.31 94.8646C237.404 94.1083 239.638 91.7158 241.161 90.1485C242.846 88.3653 244.351 86.4225 245.654 84.3498C253.152 72.447 253.016 57.3128 245.306 45.5453C242.69 41.5406 239.206 37.9894 234.84 35.975C231.2 34.2742 227.128 33.7034 223.156 34.3378C225.375 36.1354 227.366 38.1946 229.084 40.4707C231.671 43.8391 233.482 47.7291 234.39 51.8663C234.529 52.5904 234.65 53.3091 234.776 54.0394C235.411 57.9302 235.767 61.8713 237.69 65.0578C238.67 66.6663 240.024 68.0194 241.638 69.0051C242.017 69.2085 242.371 69.4558 242.69 69.7417C244.437 71.4801 239.835 71.9774 238.883 72.55C236.439 73.9668 237.347 78.0341 237.023 80.3891C236.633 83.1374 235.804 85.8069 234.567 88.2971C234.129 89.1816 233.631 90.0365 233.075 90.8537C230.538 94.5868 226.729 97.509 221.944 97.5341C219.815 97.5153 217.708 97.087 215.743 96.2742C212.372 94.9157 209.356 92.8117 206.928 90.1234" fill="#111111"/>
<path d="M235.31 94.8646C237.404 94.1083 239.638 91.7158 241.161 90.1485C242.846 88.3653 244.351 86.4225 245.654 84.3498C253.152 72.447 253.016 57.3128 245.306 45.5453C242.69 41.5406 239.206 37.9894 234.84 35.975C231.2 34.2742 227.128 33.7034 223.156 34.3378C225.375 36.1354 227.366 38.1946 229.084 40.4707C231.671 43.8391 233.482 47.7291 234.39 51.8663C234.529 52.5904 234.65 53.3091 234.776 54.0394C235.411 57.9302 235.767 61.8713 237.69 65.0578C238.67 66.6663 240.024 68.0194 241.638 69.0051C242.017 69.2085 242.371 69.4558 242.69 69.7417C244.437 71.4801 239.835 71.9774 238.883 72.55C236.439 73.9668 237.347 78.0341 237.023 80.3891C236.633 83.1374 235.804 85.8069 234.567 88.2971C234.129 89.1816 233.631 90.0365 233.075 90.8537C230.538 94.5868 226.729 97.509 221.944 97.5341C219.815 97.5153 217.708 97.087 215.743 96.2742C212.372 94.9157 209.356 92.8117 206.928 90.1234" stroke="#111111" stroke-width="4" stroke-linecap="round"/>
<path d="M230.715 81.836C230.715 81.836 224.959 85.0912 222.464 77.5977L230.715 81.836Z" fill="#111111"/>
<path d="M230.715 81.836C230.715 81.836 224.959 85.0912 222.464 77.5977" stroke="#111111" stroke-width="2" stroke-linecap="round"/>
<path d="M223.112 214.73L221.296 220.819" stroke="#111111" stroke-width="2" stroke-linecap="round"/>
<path d="M101.301 327.343C101.301 327.343 93.8878 314.222 91.4761 305.488" stroke="#111111" stroke-width="2"/>
<path d="M287.545 185.944L293.202 205.596L303.404 242.805C303.772 244.147 305.109 244.988 306.488 244.747L321.52 242.114C322.992 241.855 323.976 240.461 323.716 238.999L313.266 180.217C313.006 178.756 311.602 177.78 310.129 178.037L299.909 179.822L289.689 181.607C288.12 181.881 287.126 184.418 287.545 185.944Z" stroke="#111111" stroke-width="2"/>
<path d="M289.565 178.898L309.79 177.388C311.388 177.268 312.532 175.806 312.255 174.241L305.967 138.809C305.689 137.242 304.108 136.256 302.565 136.688L283.048 142.147C281.71 142.521 280.875 143.84 281.116 145.2L286.694 176.683C286.936 178.044 288.177 179.002 289.565 178.898Z" stroke="#111111" stroke-width="2"/>
<mask id="mask0_2188_24511" style="mask-type:alpha" maskUnits="userSpaceOnUse" x="301" y="45" width="199" height="162">
<path fill-rule="evenodd" clip-rule="evenodd" d="M453.453 46.339C454.263 45.9268 455.108 45.6401 455.987 45.4868C470.374 42.9688 488.437 76.9497 496.331 121.386C504.225 165.822 498.961 203.886 484.574 206.404C483.236 206.638 481.865 206.557 480.474 206.18L362.378 185.087L313.087 187.791L301.261 121.108L348.505 106.935L453.445 46.2924L453.453 46.339Z" fill="white"/>
</mask>
<g mask="url(#mask0_2188_24511)">
<mask id="path-35-inside-1_2188_24511" fill="white">
<path d="M453.453 46.3429L455.102 49.5321L450.747 51.75L449.897 46.9657L453.453 46.3429ZM480.474 206.184L481.114 202.656L481.271 202.684L481.425 202.726L480.474 206.184ZM362.378 185.091L362.179 181.512L362.602 181.489L363.018 181.563L362.378 185.091ZM313.087 187.794L313.286 191.373L310.086 191.549L309.53 188.416L313.087 187.794ZM348.505 106.939L350.322 110.037L349.955 110.248L349.55 110.37L348.505 106.939ZM453.445 46.2963L451.628 43.1994L456.102 40.6133L457.001 45.6744L453.445 46.2963ZM451.805 43.1537C452.922 42.5847 454.11 42.1788 455.36 41.9601L456.614 49.0205C456.106 49.1092 455.604 49.2758 455.102 49.5321L451.805 43.1537ZM455.36 41.9601C460.57 41.0488 465.499 43.5471 469.702 47.4075C473.959 51.3163 478.038 57.1059 481.788 64.16C489.307 78.3058 495.893 98.2861 499.887 120.767L492.774 122.012C488.874 100.058 482.483 80.8292 475.4 67.5051C471.848 60.8239 468.221 55.8129 464.797 52.6694C461.322 49.4784 458.597 48.6728 456.614 49.0205L455.36 41.9601ZM499.887 120.767C503.882 143.249 504.577 164.26 502.386 180.106C501.293 188.007 499.455 194.832 496.802 199.95C494.182 205.005 490.411 209.026 485.201 209.938L483.947 202.878C485.93 202.531 488.213 200.85 490.38 196.67C492.513 192.555 494.195 186.614 495.231 179.131C497.295 164.206 496.675 143.967 492.774 122.012L499.887 120.767ZM485.201 209.938C483.289 210.272 481.379 210.144 479.524 209.642L481.425 202.726C482.352 202.977 483.182 203.012 483.947 202.878L485.201 209.938ZM363.018 181.563L481.114 202.656L479.835 209.711L361.739 188.618L363.018 181.563ZM312.888 184.215L362.179 181.512L362.578 188.67L313.286 191.373L312.888 184.215ZM304.818 120.49L316.644 187.173L309.53 188.416L297.705 121.733L304.818 120.49ZM349.55 110.37L302.307 124.543L300.217 117.68L347.46 103.508L349.55 110.37ZM455.262 49.3941L350.322 110.037L346.688 103.841L451.628 43.1994L455.262 49.3941ZM449.897 46.9657L449.888 46.9191L457.001 45.6744L457.01 45.721L449.897 46.9657Z"/>
</mask>
<path d="M456.614 49.0205L455.137 49.283L458.091 48.7582L456.614 49.0205ZM492.774 122.012L492.516 120.534L493.032 123.49L492.774 122.012ZM483.947 202.878L485.424 202.615L482.47 203.14L483.947 202.878ZM454.51 45.7533L455.137 49.283L458.091 48.7579L457.464 45.2282L454.51 45.7533ZM496.073 119.913L492.516 120.534L493.032 123.49L496.59 122.868L496.073 119.913ZM486.051 206.146L485.424 202.615L482.47 203.14L483.097 206.67L486.051 206.146ZM453.883 42.2225L455.137 49.2828L458.091 48.7582L456.837 41.6978L453.883 42.2225ZM499.629 119.29L492.516 120.534L493.033 123.49L500.146 122.245L499.629 119.29ZM486.678 209.676L485.424 202.615L482.47 203.14L483.724 210.2L486.678 209.676ZM453.453 46.3429L456.118 44.9654L455.106 43.0078L452.936 43.3879L453.453 46.3429ZM455.102 49.5321L456.463 52.2055L456.466 52.204L455.102 49.5321ZM450.747 51.75L447.793 52.2745L448.501 56.2603L452.108 54.4233L450.747 51.75ZM456.614 49.0205L457.13 51.9758L457.132 51.9754L456.614 49.0205ZM492.774 122.012L489.82 122.537L489.82 122.537L492.774 122.012ZM483.947 202.878L483.43 199.922L483.428 199.923L483.947 202.878ZM480.474 206.184L477.522 205.649L483.367 206.979L480.474 206.184ZM481.271 202.684L482.065 199.791L481.931 199.754L481.794 199.73L481.271 202.684ZM362.378 185.091L359.383 185.257L365.33 185.627L362.378 185.091ZM362.602 181.489L363.13 178.535L362.786 178.474L362.437 178.493L362.602 181.489ZM313.087 187.794L316.083 187.628L315.896 184.258L312.571 184.839L313.087 187.794ZM310.086 191.549L307.133 192.073L307.597 194.69L310.251 194.545L310.086 191.549ZM309.53 188.416L306.576 188.94L306.576 188.941L309.53 188.416ZM297.705 121.733L297.189 118.778L294.226 119.296L294.751 122.257L297.705 121.733ZM300.217 117.68L299.355 114.807L296.469 115.672L297.347 118.554L300.217 117.68ZM348.505 106.939L351.093 105.421L345.635 107.812L348.505 106.939ZM350.322 110.037L351.821 112.635L351.823 112.634L350.322 110.037ZM349.955 110.248L350.819 113.121L351.153 113.021L351.454 112.847L349.955 110.248ZM349.55 110.37L350.412 113.243L350.413 113.243L349.55 110.37ZM453.445 46.2963L450.858 47.8147L451.911 49.6101L453.962 49.2515L453.445 46.2963ZM456.102 40.6133L459.056 40.0885L458.307 35.8738L454.601 38.0159L456.102 40.6133ZM457.001 45.6744L459.957 45.1596L459.955 45.1497L457.001 45.6744ZM451.805 43.1537L450.443 40.4807L447.754 41.8506L449.14 44.5313L451.805 43.1537ZM455.36 41.9601L455.877 44.9153L455.877 44.9153L455.36 41.9601ZM469.702 47.4075L467.673 49.6171L467.673 49.6172L469.702 47.4075ZM481.788 64.16L479.139 65.5681L479.139 65.5682L481.788 64.16ZM475.4 67.5051L478.049 66.097L478.049 66.097L475.4 67.5051ZM464.797 52.6694L462.768 54.8791L462.768 54.8791L464.797 52.6694ZM502.386 180.106L499.414 179.695V179.695L502.386 180.106ZM496.802 199.95L494.138 198.569L494.138 198.569L496.802 199.95ZM485.201 209.938L485.718 212.893L485.719 212.893L485.201 209.938ZM490.38 196.67L493.043 198.051L493.043 198.051L490.38 196.67ZM495.231 179.131L498.202 179.542L498.202 179.542L495.231 179.131ZM479.524 209.642L476.631 208.847L475.833 211.751L478.741 212.538L479.524 209.642ZM479.835 209.711L479.307 212.664L482.253 213.191L482.787 210.246L479.835 209.711ZM361.739 188.618L358.787 188.083L358.25 191.042L361.211 191.571L361.739 188.618ZM312.888 184.215L312.724 181.22L309.726 181.384L309.893 184.382L312.888 184.215ZM362.578 188.67L362.742 191.665L365.74 191.501L365.573 188.503L362.578 188.67ZM304.818 120.49L307.772 119.967L307.25 117.02L304.302 117.535L304.818 120.49ZM316.644 187.173L317.16 190.129L320.123 189.611L319.598 186.65L316.644 187.173ZM302.307 124.543L299.437 125.417L300.307 128.274L303.169 127.416L302.307 124.543ZM347.46 103.508L350.33 102.634L349.459 99.7757L346.598 100.634L347.46 103.508ZM455.262 49.3941L456.763 51.9916L459.377 50.4808L457.849 47.8762L455.262 49.3941ZM346.688 103.841L345.187 101.243L342.573 102.754L344.1 105.359L346.688 103.841ZM449.888 46.9191L449.371 43.964L446.361 44.4906L446.943 47.4901L449.888 46.9191ZM457.01 45.721L457.527 48.6761L460.48 48.1594L459.965 45.2062L457.01 45.721ZM450.788 47.7205L452.437 50.9097L457.767 48.1545L456.118 44.9654L450.788 47.7205ZM453.741 46.8588L449.385 49.0766L452.108 54.4233L456.463 52.2055L453.741 46.8588ZM453.7 51.2255L452.851 46.4412L446.943 47.4902L447.793 52.2745L453.7 51.2255ZM450.415 49.9208L453.971 49.298L452.936 43.3879L449.38 44.0107L450.415 49.9208ZM483.426 206.72L484.066 203.192L478.162 202.121L477.522 205.649L483.426 206.72ZM480.592 205.61L480.749 205.638L481.794 199.73L481.637 199.702L480.592 205.61ZM480.477 205.577L480.631 205.619L482.219 199.833L482.065 199.791L480.477 205.577ZM478.532 201.931L477.581 205.389L483.367 206.979L484.317 203.521L478.532 201.931ZM365.373 184.925L365.175 181.346L359.184 181.678L359.383 185.257L365.373 184.925ZM362.345 184.507L362.767 184.484L362.437 178.493L362.014 178.516L362.345 184.507ZM362.074 184.442L362.49 184.516L363.546 178.61L363.13 178.535L362.074 184.442ZM360.066 181.027L359.426 184.555L365.33 185.627L365.97 182.099L360.066 181.027ZM310.092 187.961L310.291 191.54L316.281 191.207L316.083 187.628L310.092 187.961ZM313.122 188.378L309.922 188.554L310.251 194.545L313.45 194.369L313.122 188.378ZM313.04 191.025L312.484 187.892L306.576 188.941L307.133 192.073L313.04 191.025ZM310.047 191.372L313.604 190.75L312.571 184.839L309.014 185.461L310.047 191.372ZM345.917 108.456L347.734 111.554L352.91 108.519L351.093 105.421L345.917 108.456ZM348.823 107.438L348.456 107.65L351.454 112.847L351.821 112.635L348.823 107.438ZM349.092 107.375L348.686 107.497L350.413 113.243L350.819 113.121L349.092 107.375ZM352.42 109.496L351.375 106.065L345.635 107.812L346.68 111.244L352.42 109.496ZM456.033 44.778L454.215 41.681L449.04 44.7178L450.858 47.8147L456.033 44.778ZM453.129 45.7968L457.603 43.2106L454.601 38.0159L450.127 40.6021L453.129 45.7968ZM453.148 41.1381L454.048 46.1992L459.955 45.1497L459.056 40.0885L453.148 41.1381ZM456.485 42.7193L452.928 43.3412L453.962 49.2515L457.518 48.6296L456.485 42.7193ZM453.167 45.8268C454.029 45.3876 454.933 45.0804 455.877 44.9153L454.843 39.005C453.287 39.2772 451.815 39.7818 450.443 40.4807L453.167 45.8268ZM456.098 46.0651C455.285 46.2071 454.498 46.4721 453.738 46.8602L456.466 52.204C456.71 52.0796 456.927 52.0113 457.13 51.9758L456.098 46.0651ZM457.767 48.1546L454.47 41.7762L449.14 44.5313L452.437 50.9097L457.767 48.1546ZM455.877 44.9153C459.753 44.2373 463.771 46.0331 467.673 49.6171L471.732 45.1979C467.227 41.0611 461.387 37.8603 454.843 39.005L455.877 44.9153ZM467.673 49.6172C471.583 53.207 475.473 58.6711 479.139 65.5681L484.437 62.752C480.604 55.5408 476.336 49.4255 471.731 45.1978L467.673 49.6172ZM479.139 65.5682C486.475 79.369 492.979 99.0328 496.934 121.292L502.841 120.243C498.808 97.5393 492.14 77.2426 484.437 62.7519L479.139 65.5682ZM495.728 121.487C491.788 99.311 485.315 79.7661 478.049 66.097L472.751 68.9133C479.65 81.8923 485.96 100.804 489.82 122.537L495.728 121.487ZM478.049 66.097C474.414 59.2589 470.597 53.9222 466.826 50.4596L462.768 54.8791C465.844 57.7036 469.283 62.3888 472.751 68.9133L478.049 66.097ZM466.826 50.4597C463.038 46.9806 459.402 45.4858 456.096 46.0656L457.132 51.9754C457.791 51.8598 459.607 51.9762 462.768 54.8791L466.826 50.4597ZM496.934 121.292C500.888 143.551 501.551 164.237 499.414 179.695L505.357 180.517C507.602 164.283 506.875 142.946 502.841 120.243L496.934 121.292ZM499.414 179.695C498.346 187.419 496.574 193.872 494.138 198.569L499.465 201.331C502.336 195.793 504.24 188.594 505.357 180.517L499.414 179.695ZM494.138 198.569C491.708 203.258 488.557 206.305 484.684 206.983L485.719 212.893C492.266 211.747 496.655 206.752 499.465 201.331L494.138 198.569ZM484.464 205.833C487.773 205.254 490.678 202.613 493.043 198.051L487.716 195.289C485.748 199.087 484.087 199.808 483.43 199.922L484.464 205.833ZM493.043 198.051C495.395 193.514 497.142 187.202 498.202 179.542L492.259 178.72C491.248 186.027 489.632 191.595 487.716 195.29L493.043 198.051ZM498.202 179.542C500.32 164.229 499.668 143.664 495.728 121.487L489.82 122.537C493.682 144.27 494.269 164.183 492.259 178.72L498.202 179.542ZM484.685 206.983C483.245 207.234 481.78 207.145 480.308 206.746L478.741 212.538C480.978 213.143 483.333 213.31 485.718 212.893L484.685 206.983ZM482.417 210.437L484.317 203.521L478.532 201.931L476.631 208.847L482.417 210.437ZM480.641 205.622C481.951 205.976 483.227 206.05 484.467 205.832L483.428 199.923C483.137 199.974 482.753 199.978 482.208 199.83L480.641 205.622ZM362.491 184.516L480.587 205.609L481.642 199.703L363.546 178.61L362.491 184.516ZM478.162 202.121L476.883 209.176L482.787 210.246L484.066 203.191L478.162 202.121ZM480.362 206.758L362.266 185.665L361.211 191.571L479.307 212.664L480.362 206.758ZM364.691 189.153L365.97 182.098L360.066 181.028L358.787 188.083L364.691 189.153ZM313.052 187.211L362.344 184.507L362.015 178.516L312.724 181.22L313.052 187.211ZM359.184 181.679L359.582 188.837L365.573 188.503L365.175 181.345L359.184 181.679ZM362.413 185.674L313.122 188.378L313.45 194.369L362.742 191.665L362.413 185.674ZM316.281 191.207L315.883 184.049L309.893 184.382L310.291 191.54L316.281 191.207ZM301.865 121.014L313.69 187.697L319.598 186.65L307.772 119.967L301.865 121.014ZM316.127 184.218L309.014 185.461L310.047 191.372L317.16 190.129L316.127 184.218ZM312.484 187.893L300.659 121.209L294.751 122.257L306.576 188.94L312.484 187.893ZM298.221 124.689L305.335 123.446L304.302 117.535L297.189 118.778L298.221 124.689ZM348.688 107.496L301.445 121.669L303.169 127.416L350.412 113.243L348.688 107.496ZM305.177 123.669L303.087 116.806L297.347 118.554L299.437 125.417L305.177 123.669ZM301.079 120.554L348.322 106.381L346.598 100.634L299.355 114.807L301.079 120.554ZM344.59 104.382L346.68 111.244L352.42 109.496L350.33 102.634L344.59 104.382ZM453.761 46.7967L348.821 107.439L351.823 112.634L456.763 51.9916L453.761 46.7967ZM352.909 108.519L349.276 102.323L344.1 105.359L347.734 111.554L352.909 108.519ZM348.189 106.438L453.129 45.7969L450.127 40.6019L345.187 101.243L348.189 106.438ZM449.04 44.7174L452.674 50.9121L457.849 47.8762L454.215 41.6815L449.04 44.7174ZM452.842 46.3948L452.833 46.3482L446.943 47.4901L446.952 47.5367L452.842 46.3948ZM450.405 49.8742L457.519 48.6295L456.484 42.7193L449.371 43.964L450.405 49.8742ZM454.046 46.1893L454.054 46.2359L459.965 45.2062L459.957 45.1596L454.046 46.1893ZM456.492 42.766L449.38 44.0106L450.414 49.9208L457.527 48.6761L456.492 42.766Z" fill="#111111" mask="url(#path-35-inside-1_2188_24511)"/>
<path d="M461.407 188.459C452.523 178.257 443.887 156.695 439.314 130.955C435.934 111.926 435.427 94.2892 437.345 81.294C438.298 74.8341 439.851 69.5202 441.948 65.7539" stroke="#111111" stroke-width="2" stroke-linecap="round"/>
<path d="M450.046 128.061C443.038 88.6104 446.109 55.0982 456.906 53.2083C467.703 51.3194 482.137 81.7678 489.146 121.218C496.153 160.668 493.083 194.18 482.286 196.07C471.489 197.959 457.055 167.511 450.046 128.061Z" fill="#007456"/>
</g>
<mask id="mask1_2188_24511" style="mask-type:alpha" maskUnits="userSpaceOnUse" x="446" y="53" width="47" height="144">
<path d="M450.043 128.061C443.035 88.6104 446.105 55.0982 456.903 53.2083C467.7 51.3194 482.134 81.7679 489.142 121.218C496.151 160.668 493.079 194.18 482.282 196.07C471.486 197.959 457.051 167.511 450.043 128.061Z" fill="#007456"/>
</mask>
<g mask="url(#mask1_2188_24511)">
<path d="M442.809 160.129C425.358 160.129 411.21 146.087 411.21 128.766C411.21 111.444 425.358 97.4023 442.809 97.4023C460.261 97.4023 474.408 111.444 474.408 128.766C474.408 146.087 460.261 160.129 442.809 160.129Z" fill="#FFD75E" stroke="#111111" stroke-width="2"/>
</g>
</svg>
